<?xml version="1.0" encoding="utf-8"?>
<!-- Generator: Adobe Illustrator 16.0.0, SVG Export Plug-In . SVG Version: 6.00 Build 0)  -->
<!DOCTYPE svg PUBLIC "-//W3C//DTD SVG 1.1//EN" "http://www.w3.org/Graphics/SVG/1.1/DTD/svg11.dtd">
<svg version="1.1" id="Layer_1" xmlns="http://www.w3.org/2000/svg" xmlns:xlink="http://www.w3.org/1999/xlink" x="0px" y="0px"
	 width="1052.119px" height="340px" viewBox="0 50.488 1052.119 340" enable-background="new 0 50.488 1052.119 340"
	 xml:space="preserve">
<g>
	<polygon points="984.805,268.61 984.805,250.036 977.787,250.036 977.787,246.424 995.733,246.424 995.733,250.036 
		988.717,250.036 988.717,268.61 	"/>
	<polygon points="999.841,268.61 999.841,246.424 1003.984,246.424 1010.702,256.906 1017.438,246.424 1021.582,246.424 
		1021.582,268.61 1017.688,268.61 1017.688,252.688 1010.702,263.152 1010.58,263.152 1003.66,252.756 1003.66,268.61 	"/>
	<g>
		<path d="M24.17,311.434l-0.057-28.931l21.186-0.042l0.009,4.546l-16.165,0.032l0.014,7.522l14.328-0.029l0.01,4.547l-14.328,0.029
			l0.015,7.769l16.369-0.032l0.009,4.547L24.17,311.434z"/>
		<path d="M53.561,311.376l-0.057-28.932l5.348-0.011l8.721,13.663l8.668-13.697l5.348-0.011l0.057,28.932l-5.021,0.01
			l-0.041-20.747l-8.994,13.656h-0.164L58.459,290.7l0.04,20.665L53.561,311.376z"/>
		<path d="M91.033,311.301l-0.057-28.932l11.266-0.021c3.32-0.006,5.962,0.871,7.924,2.63c1.963,1.76,2.947,4.1,2.953,7.021v0.082
			c0.007,3.114-1.072,5.541-3.23,7.281c-2.161,1.74-4.887,2.613-8.18,2.619l-5.674,0.012l0.018,9.299L91.033,311.301z
			 M96.025,297.403l5.838-0.011c1.878-0.003,3.373-0.488,4.487-1.455c1.114-0.966,1.67-2.208,1.667-3.724v-0.082
			c-0.004-1.654-0.557-2.925-1.662-3.819c-1.103-0.894-2.608-1.338-4.513-1.334l-5.837,0.011L96.025,297.403z"/>
		<path d="M144.704,307.31c-2.826,2.928-6.401,4.394-10.729,4.402c-4.326,0.01-7.895-1.43-10.702-4.317
			c-2.809-2.888-4.217-6.399-4.226-10.532v-0.082c-0.008-4.134,1.4-7.663,4.225-10.589c2.824-2.927,6.4-4.395,10.727-4.402
			s7.895,1.432,10.704,4.319c2.808,2.887,4.217,6.397,4.225,10.531l0,0.082C148.936,300.855,147.527,304.385,144.704,307.31z
			 M127.083,304.059c1.841,1.996,4.162,2.989,6.965,2.983c2.802-0.005,5.107-0.995,6.914-2.969c1.806-1.974,2.706-4.392,2.7-7.26
			v-0.081c-0.006-2.866-0.929-5.296-2.771-7.29c-1.84-1.993-4.163-2.988-6.965-2.982c-2.803,0.006-5.107,0.995-6.913,2.969
			s-2.706,4.394-2.701,7.259l0.001,0.083C124.319,299.636,125.242,302.065,127.083,304.059z"/>
		<path d="M163.283,311.364l-10.017-29.118l5.429-0.011l6.859,21.438l6.979-21.547l4.246-0.009l7.063,21.519l6.775-21.465
			l5.266-0.009l-9.903,29.157l-4.326,0.01l-7.062-20.776l-6.98,20.804L163.283,311.364z"/>
		<path d="M203.123,311.08l-0.057-28.932l21.186-0.042l0.009,4.547l-16.165,0.031l0.014,7.521l14.328-0.027l0.009,4.546
			l-14.328,0.028l0.015,7.77l16.37-0.032l0.008,4.547L203.123,311.08z"/>
		<path d="M232.513,311.021l-0.058-28.932l12.736-0.025c3.538-0.007,6.289,0.953,8.251,2.878c1.581,1.65,2.375,3.729,2.38,6.235
			v0.083c0.005,2.288-0.604,4.17-1.826,5.645c-1.222,1.478-2.88,2.521-4.974,3.131l7.736,10.937l-5.919,0.012l-7.041-10.069
			l-6.286,0.012l0.02,10.084L232.513,311.021z M237.504,296.422l7.348-0.015c1.797-0.003,3.224-0.446,4.284-1.33
			c1.059-0.884,1.587-2.057,1.584-3.518v-0.082c-0.003-1.543-0.522-2.727-1.558-3.551c-1.037-0.825-2.493-1.235-4.371-1.231
			l-7.307,0.015L237.504,296.422z"/>
		<path d="M264.352,310.958l-0.056-28.932l5.021-0.01l0.056,28.932L264.352,310.958z"/>
		<path d="M279.047,310.93l-0.058-28.932l4.654-0.01l15.347,19.975l-0.04-20.005l4.939-0.009l0.057,28.932l-4.204,0.007
			l-15.797-20.551l0.04,20.582L279.047,310.93z"/>
		<path d="M326.888,311.33c-4.41,0.009-7.984-1.396-10.724-4.215c-2.741-2.819-4.115-6.362-4.124-10.635v-0.082
			c-0.008-4.133,1.379-7.663,4.164-10.59c2.783-2.926,6.298-4.393,10.543-4.4c2.395-0.005,4.437,0.315,6.125,0.959
			s3.309,1.625,4.862,2.945l-3.176,3.849c-1.2-1.043-2.405-1.818-3.618-2.327c-1.212-0.507-2.674-0.759-4.39-0.755
			c-2.612,0.005-4.808,1.008-6.586,3.009c-1.778,2.001-2.664,4.408-2.659,7.218l0,0.083c0.006,3.004,0.909,5.474,2.708,7.413
			c1.799,1.938,4.143,2.906,7.026,2.899c2.667-0.006,4.964-0.739,6.895-2.204l-0.011-5.414l-7.307,0.015l-0.009-4.422l12.164-0.025
			l0.024,12.151C335.348,309.813,331.377,311.321,326.888,311.33z"/>
		<path d="M361.664,310.766l-0.057-28.931l5.347-0.012l8.722,13.665l8.667-13.699l5.347-0.01l0.057,28.932l-5.021,0.01
			l-0.041-20.747l-8.994,13.655h-0.164l-8.966-13.538l0.04,20.666L361.664,310.766z"/>
		<path d="M399.421,310.692l-0.056-28.933l5.021-0.009l0.057,28.931L399.421,310.692z"/>
		<path d="M414.116,310.662l-0.056-28.931l5.02-0.011l0.048,24.303l15.021-0.03l0.009,4.63L414.116,310.662z"/>
		<path d="M441.424,310.608l-0.057-28.932l5.021-0.011l0.048,24.304l15.021-0.03l0.009,4.63L441.424,310.608z"/>
		<path d="M469.018,310.554l-0.057-28.932l5.021-0.01l0.057,28.932L469.018,310.554z"/>
		<path d="M508.074,306.592c-2.825,2.926-6.4,4.393-10.727,4.401c-4.327,0.008-7.895-1.43-10.703-4.317
			c-2.809-2.889-4.218-6.399-4.226-10.532v-0.082c-0.008-4.133,1.4-7.663,4.225-10.589c2.824-2.927,6.4-4.395,10.727-4.401
			c4.326-0.01,7.895,1.431,10.704,4.318c2.808,2.887,4.217,6.397,4.225,10.529v0.084
			C512.307,300.135,510.898,303.666,508.074,306.592z M490.454,303.34c1.841,1.995,4.163,2.989,6.965,2.983
			c2.803-0.005,5.107-0.994,6.914-2.968c1.806-1.974,2.706-4.394,2.7-7.261v-0.081c-0.006-2.866-0.929-5.296-2.771-7.29
			c-1.84-1.994-4.163-2.987-6.965-2.982c-2.804,0.006-5.107,0.994-6.913,2.969c-1.806,1.974-2.706,4.395-2.701,7.258l0,0.084
			C487.689,298.917,488.613,301.348,490.454,303.34z"/>
		<path d="M520.449,310.452l-0.056-28.932l4.653-0.009l15.347,19.973l-0.04-20.004l4.939-0.01l0.056,28.933l-4.204,0.008
			l-15.796-20.552l0.04,20.583L520.449,310.452z"/>
		<path d="M569.025,310.355l-0.057-28.931l21.185-0.043l0.008,4.547l-16.164,0.032l0.014,7.521l14.327-0.028l0.009,4.547
			l-14.326,0.028l0.014,7.77l16.37-0.032l0.009,4.547L569.025,310.355z"/>
		<path d="M598.414,310.297l-0.056-28.931l4.652-0.01l15.347,19.975l-0.039-20.005l4.939-0.009l0.057,28.931l-4.204,0.008
			l-15.798-20.55l0.04,20.582L598.414,310.297z"/>
		<path d="M639.724,310.217l-0.048-24.221l-9.062,0.019l-0.009-4.713l23.185-0.046l0.009,4.713l-9.061,0.019l0.047,24.219
			L639.724,310.217z"/>
		<path d="M661.194,310.174l-0.057-28.932l12.735-0.025c3.537-0.007,6.286,0.952,8.251,2.876c1.581,1.65,2.375,3.729,2.379,6.237
			l0.001,0.082c0.005,2.288-0.604,4.171-1.826,5.646c-1.222,1.478-2.881,2.521-4.974,3.131l7.736,10.937l-5.919,0.012l-7.042-10.071
			l-6.285,0.014l0.02,10.084L661.194,310.174z M666.186,295.574l7.348-0.015c1.797-0.004,3.224-0.448,4.284-1.33
			c1.059-0.884,1.587-2.057,1.584-3.518v-0.083c-0.003-1.543-0.522-2.727-1.558-3.551c-1.036-0.825-2.492-1.234-4.37-1.23
			l-7.308,0.014L666.186,295.574z"/>
		<path d="M692.747,310.111l-0.057-28.932l21.186-0.043l0.008,4.547l-16.164,0.033l0.016,7.521l14.327-0.029l0.01,4.547
			l-14.328,0.029l0.015,7.77l16.368-0.033l0.009,4.547L692.747,310.111z"/>
		<path d="M722.137,310.053l-0.056-28.932l11.266-0.022c3.32-0.006,5.961,0.87,7.924,2.63c1.962,1.761,2.946,4.101,2.952,7.021
			v0.082c0.006,3.114-1.07,5.54-3.23,7.281c-2.16,1.739-4.886,2.612-8.179,2.619l-5.675,0.012l0.02,9.299L722.137,310.053z
			 M727.131,296.157l5.837-0.013c1.877-0.003,3.372-0.488,4.486-1.456c1.115-0.966,1.67-2.207,1.667-3.723v-0.082
			c-0.003-1.654-0.557-2.926-1.661-3.82c-1.104-0.893-2.607-1.338-4.513-1.335l-5.837,0.013L727.131,296.157z"/>
		<path d="M751.445,309.994l-0.057-28.932l12.735-0.024c3.538-0.007,6.288,0.952,8.252,2.877c1.581,1.65,2.374,3.729,2.379,6.236
			v0.083c0.005,2.287-0.604,4.169-1.825,5.646c-1.223,1.476-2.881,2.52-4.975,3.129l7.737,10.938l-5.92,0.013l-7.04-10.071
			l-6.286,0.012l0.021,10.086L751.445,309.994z M756.438,295.396l7.348-0.016c1.796-0.004,3.225-0.447,4.283-1.331
			s1.589-2.056,1.585-3.518v-0.082c-0.002-1.543-0.522-2.726-1.56-3.551c-1.034-0.825-2.49-1.235-4.369-1.231l-7.306,0.015
			L756.438,295.396z"/>
		<path d="M782.998,309.933l-0.056-28.932l21.185-0.042l0.009,4.547l-16.164,0.032l0.016,7.521l14.326-0.028l0.01,4.546
			l-14.328,0.029l0.016,7.77l16.368-0.032l0.009,4.547L782.998,309.933z"/>
		<path d="M812.389,309.875l-0.057-28.932l4.652-0.01l15.347,19.973l-0.038-20.004l4.938-0.008l0.057,28.931l-4.204,0.008
			l-15.796-20.551l0.04,20.582L812.389,309.875z"/>
		<path d="M846.676,309.806l-0.055-28.931l21.185-0.042l0.008,4.546l-16.163,0.032l0.015,7.522l14.328-0.029l0.008,4.547
			l-14.328,0.029l0.016,7.769l16.368-0.032l0.01,4.547L846.676,309.806z"/>
		<path d="M887.782,310.18c-3.781,0.007-6.758-1.074-8.925-3.247c-2.167-2.172-3.255-5.326-3.264-9.46l-0.033-16.655l5.022-0.011
			l0.031,16.45c0.006,2.646,0.648,4.685,1.931,6.114c1.281,1.429,3.051,2.143,5.311,2.139c2.258-0.005,4.021-0.696,5.283-2.078
			c1.263-1.38,1.89-3.378,1.887-5.997l-0.034-16.655l5.021-0.011l0.031,16.409c0.009,4.215-1.073,7.435-3.247,9.656
			C894.626,309.057,891.62,310.173,887.782,310.18z"/>
		<path d="M909.006,309.683l-0.056-28.931l12.735-0.026c3.54-0.007,6.29,0.952,8.252,2.878c1.581,1.65,2.374,3.729,2.379,6.236
			l0.001,0.082c0.004,2.288-0.604,4.169-1.826,5.646c-1.222,1.476-2.88,2.52-4.974,3.13l7.736,10.937l-5.919,0.012l-7.042-10.07
			l-6.286,0.013l0.021,10.084L909.006,309.683z M913.999,295.084l7.348-0.014c1.796-0.004,3.226-0.448,4.283-1.332
			c1.06-0.884,1.588-2.056,1.586-3.518v-0.081c-0.004-1.543-0.523-2.728-1.56-3.552c-1.034-0.825-2.491-1.235-4.369-1.231
			l-7.308,0.015L913.999,295.084z"/>
		<path d="M950.562,310.015c-4.545,0.009-8.521-1.526-11.928-4.606l3.014-3.643c2.862,2.502,5.87,3.749,9.028,3.743
			c1.552-0.004,2.781-0.337,3.691-0.999c0.911-0.663,1.365-1.547,1.362-2.647v-0.084c-0.002-1.073-0.439-1.928-1.311-2.56
			c-0.872-0.632-2.587-1.248-5.146-1.85c-1.634-0.41-2.997-0.82-4.085-1.231c-1.089-0.411-2.07-0.946-2.941-1.605
			c-0.872-0.66-1.508-1.464-1.903-2.415c-0.398-0.948-0.596-2.072-0.598-3.368v-0.081c-0.005-2.479,0.901-4.5,2.723-6.061
			c1.818-1.559,4.159-2.343,7.017-2.349c3.918-0.008,7.375,1.198,10.374,3.615l-2.686,3.851c-2.645-1.979-5.232-2.967-7.763-2.961
			c-1.415,0.003-2.543,0.329-3.387,0.978c-0.842,0.649-1.262,1.47-1.261,2.463v0.081c0.004,1.131,0.461,2.004,1.375,2.622
			c0.91,0.619,2.715,1.256,5.41,1.911c3.159,0.766,5.48,1.787,6.967,3.064c1.485,1.279,2.23,3.076,2.235,5.391v0.081
			c0.005,2.674-0.93,4.783-2.805,6.33C956.071,309.232,953.61,310.009,950.562,310.015z"/>
	</g>
	<path fill-rule="evenodd" clip-rule="evenodd" fill="#26247B" d="M878.234,323.885h75.834c3.648,0,6.632,2.977,6.632,6.625v42.021
		c0,3.655-2.983,6.638-6.632,6.638h-75.834c-3.649,0-6.626-2.982-6.626-6.638V330.51
		C871.608,326.861,874.585,323.885,878.234,323.885 M878.289,325.84l76.237,0.037c0.489,0.061,0.899,0.165,1.369,0.312
		c0.416,0.227,0.765,0.44,1.144,0.733c0.354,0.306,0.617,0.617,0.904,0.99c0.251,0.403,0.41,0.776,0.593,1.217
		c0.122,0.488,0.184,0.91,0.208,1.436l-0.024,42.45c-0.079,0.464-0.184,0.88-0.336,1.319c-0.208,0.453-0.428,0.789-0.716,1.162
		c-0.305,0.354-0.61,0.647-0.983,0.904c-0.416,0.257-0.771,0.434-1.229,0.599c-0.495,0.122-0.93,0.189-1.425,0.202l-76.268-0.013
		c-0.477-0.085-0.88-0.183-1.339-0.354c-0.434-0.201-0.776-0.409-1.149-0.69c-0.36-0.317-0.629-0.623-0.916-1.009
		c-0.245-0.409-0.422-0.782-0.593-1.216c-0.123-0.495-0.184-0.929-0.214-1.425l0.03-42.455c0.073-0.477,0.184-0.886,0.349-1.326
		c0.207-0.434,0.421-0.782,0.702-1.161c0.313-0.367,0.624-0.63,0.99-0.923c0.41-0.238,0.776-0.428,1.235-0.575
		C877.36,325.913,877.77,325.877,878.289,325.84z"/>
	<polygon fill-rule="evenodd" clip-rule="evenodd" fill="#26247B" points="913.429,335.95 895.581,335.84 884.902,340.546 
		880.282,357.392 887.434,366.859 904.676,366.963 907.561,355.852 888.423,364.903 895.679,337.313 909.932,347.667 	"/>
	<polygon fill-rule="evenodd" clip-rule="evenodd" fill="#26247B" points="908.392,366.987 908.398,364.903 911.173,364.934 
		918.746,337.612 916.79,337.539 916.796,335.999 933.562,336.121 933.556,337.637 931.025,337.625 923.11,365.087 925.164,365.099 
		925.164,367.085 	"/>
	<polygon fill-rule="evenodd" clip-rule="evenodd" fill="#26247B" points="926.845,367.104 926.869,365.038 929.626,365.05 
		937.205,337.723 935.255,337.649 935.279,336.121 952.027,336.23 952.027,337.747 949.484,337.723 941.581,365.19 943.629,365.209 
		943.623,367.214 	"/>
	<path fill="#A6A8AB" d="M542.283,366.816v-27.938h11.424c3.3,0,5.91,0.874,7.829,2.652c1.92,1.761,2.86,4.102,2.86,6.992v0.098
		c0,3.105-1.057,5.514-3.184,7.237c-2.128,1.729-4.829,2.579-8.093,2.579h-4.683v8.38H542.283z M548.438,352.954h4.859
		c1.498,0,2.684-0.392,3.569-1.18c0.868-0.813,1.314-1.815,1.314-3.05v-0.056c0-1.375-0.446-2.414-1.314-3.16
		c-0.886-0.727-2.114-1.088-3.679-1.088h-4.75V352.954z"/>
	<path fill="#A6A8AB" d="M568.957,366.816v-27.938h12.774c3.551,0,6.253,0.94,8.147,2.812c1.602,1.619,2.396,3.729,2.396,6.411v0.08
		c0,4.272-1.992,7.163-5.983,8.654l6.821,9.981h-7.183l-6.002-8.954h-4.816v8.954H568.957z M575.111,352.44h6.223
		c1.467,0,2.616-0.354,3.459-1.069c0.832-0.716,1.247-1.669,1.247-2.892v-0.061c0-1.302-0.422-2.299-1.265-2.983
		c-0.85-0.666-2.048-1.015-3.558-1.015h-6.106V352.44z"/>
	<polygon fill="#A6A8AB" points="597.824,366.816 597.824,338.878 618.899,338.878 618.899,344.342 603.937,344.342 
		603.937,350.021 617.108,350.021 617.108,355.479 603.937,355.479 603.937,361.358 619.107,361.358 619.107,366.816 	"/>
	<path fill="#A6A8AB" d="M634.516,367.232c-4.571,0-8.526-1.51-11.857-4.475l3.637-4.37c2.738,2.268,5.525,3.404,8.337,3.404
		c1.253,0,2.25-0.244,2.965-0.715c0.715-0.452,1.076-1.101,1.076-1.913v-0.092c0-0.807-0.38-1.442-1.119-1.938
		c-0.745-0.483-2.255-1.033-4.511-1.607c-1.602-0.397-2.891-0.789-3.875-1.192c-0.978-0.385-1.926-0.892-2.812-1.534
		c-0.887-0.642-1.553-1.43-1.968-2.365c-0.392-0.947-0.611-2.108-0.611-3.466v-0.073c0-2.524,0.91-4.565,2.738-6.112
		c1.833-1.534,4.168-2.316,7.047-2.316c3.961,0,7.427,1.186,10.379,3.563l-3.197,4.627c-2.634-1.827-5.055-2.757-7.255-2.757
		c-1.155,0-2.035,0.227-2.659,0.679c-0.629,0.452-0.941,1.039-0.941,1.754v0.092c0,0.905,0.38,1.571,1.162,2.029
		c0.77,0.452,2.401,1.003,4.871,1.639c3.031,0.807,5.275,1.809,6.705,3.044c1.431,1.246,2.146,3.013,2.146,5.342v0.073
		c0,2.714-0.923,4.841-2.812,6.362C640.091,366.468,637.609,367.232,634.516,367.232"/>
	<polygon fill="#A6A8AB" points="650.127,366.816 650.127,338.878 671.214,338.878 671.214,344.342 656.239,344.342 
		656.239,350.021 669.423,350.021 669.423,355.479 656.239,355.479 656.239,361.358 671.416,361.358 671.416,366.816 	"/>
	<polygon fill="#A6A8AB" points="676.886,366.816 676.886,338.878 682.558,338.878 695.645,356.077 695.645,338.878 
		701.714,338.878 701.714,366.816 696.481,366.816 682.962,349.042 682.962,366.816 	"/>
	<polygon fill="#A6A8AB" points="714.935,366.816 714.935,344.537 706.433,344.537 706.433,338.878 729.585,338.878 
		729.585,344.537 721.09,344.537 721.09,366.816 	"/>
	<polygon fill="#A6A8AB" points="734.304,366.816 734.304,338.878 755.373,338.878 755.373,344.342 740.416,344.342 
		740.416,350.021 753.582,350.021 753.582,355.479 740.416,355.479 740.416,361.358 755.58,361.358 755.58,366.816 	"/>
	<path fill="#A6A8AB" d="M761.039,366.816v-27.938h10.91c4.346,0,7.903,1.308,10.684,3.979c2.781,2.628,4.182,5.947,4.182,9.914
		v0.062c0,4.003-1.4,7.334-4.182,9.999c-2.78,2.665-6.338,3.985-10.684,3.985H761.039z M767.206,361.267h4.743
		c2.512,0,4.529-0.764,6.1-2.316c1.547-1.553,2.329-3.558,2.329-6.026v-0.092c0-2.464-0.782-4.486-2.329-6.058
		c-1.57-1.564-3.588-2.354-6.1-2.354h-4.743V361.267z"/>
	<path fill="#A6A8AB" d="M804.258,366.816v-27.938h12.977c3.215,0,5.654,0.807,7.304,2.469c1.278,1.271,1.92,2.86,1.92,4.743v0.092
		c0,2.622-1.223,4.639-3.68,6.026c1.724,0.666,3.038,1.54,3.924,2.592c0.868,1.058,1.302,2.494,1.302,4.272v0.092
		c0,2.481-0.923,4.395-2.793,5.69c-1.864,1.314-4.413,1.962-7.671,1.962H804.258z M810.248,350.173h5.666
		c2.952,0,4.426-0.99,4.426-2.965v-0.079c0-0.917-0.337-1.645-1.039-2.133c-0.685-0.489-1.682-0.728-2.983-0.728h-6.069V350.173z
		 M810.248,361.438h7.292c2.909,0,4.358-1.026,4.358-3.05v-0.073c0-2.023-1.517-3.032-4.561-3.032h-7.09V361.438z"/>
	<polygon fill="#A6A8AB" points="839.746,366.816 839.746,355.796 829.007,338.878 836.194,338.878 842.863,350.094 
		849.653,338.878 856.64,338.878 845.895,355.674 845.895,366.816 	"/>
	<path d="M23.658,64.83h165.237v42.602H85.452v31.716h95.956v40.695H85.452v39.338H191.89v45.188H23.658V64.83z"/>
	<path d="M336.809,118.488l-27.77,89.93l-28.15-89.93h-61l55.17,145.89h66.78l54.2-145.89H336.809z"/>
	<polygon fill="#E82329" points="275.869,102.458 213.829,102.458 199.639,64.838 264.099,64.838 	"/>
	<polygon fill="#E82329" points="415.949,64.838 401.989,102.458 341.749,102.458 353.359,64.838 	"/>
	<path d="M424.977,164.734c0-32.572,9.07-57.932,27.224-76.085c18.147-18.147,43.415-27.217,75.81-27.217
		c33.214,0,58.8,8.911,76.77,26.741c17.964,17.835,26.949,42.81,26.949,74.929c0,23.324-3.925,42.443-11.772,57.37
		c-7.854,14.932-19.192,26.545-34.026,34.845c-14.841,8.307-33.33,12.457-55.469,12.457c-22.505,0-41.129-3.588-55.872-10.758
		c-14.749-7.163-26.704-18.508-35.866-34.026C429.555,207.477,424.977,188.058,424.977,164.734z M486.637,165.009
		c0,20.146,3.74,34.62,11.228,43.421c7.487,8.801,17.67,13.202,30.555,13.202c13.245,0,23.501-4.309,30.763-12.934
		c7.255-8.618,10.886-24.088,10.886-46.41c0-18.783-3.79-32.511-11.363-41.178c-7.579-8.661-17.854-12.995-30.83-12.995
		c-12.432,0-22.414,4.401-29.944,13.203C490.396,130.12,486.637,144.686,486.637,165.009z"/>
	<path d="M656.103,64.83h61.66v150.403h96.23v49.136H656.103V64.83z"/>
	<path d="M996.015,64.842c-1.565,2.127-3.13,4.254-4.634,6.442c-11.516,16.527-22.278,33.55-32.297,51.141
		c-2.879,5.006-5.69,10.012-8.386,15.079l-21.906,70.914l-5.066-16.148l-39.81-127.428h-64.465l75.357,199.533h66.843
		l74.043-199.533H996.015z"/>
	<path fill="none" d="M1043.078,64.53h-46.813"/>
	<path fill="#E82329" d="M1043.078,64.53c-0.122,0.122-0.184,0.25-0.184,0.373c-0.88,1.687-1.692,3.441-2.506,5.195
		c-9.828,20.843-19.277,42.119-28.416,63.53c-4.633,10.886-9.198,21.967-13.52,33.104c-3.001,7.579-5.941,15.213-8.759,22.848
		c-5.696,15.458-15.897,43.188-23.288,63.463c-1.124,3.13-2.249,6.075-3.251,8.704c-0.501,1.375-0.941,2.689-1.376,3.881h-67.16
		c0.128-0.44,0.312-0.813,0.501-1.253c7.133-19.089,20.341-53.763,28.104-70.975c0.189-0.379,0.312-0.751,0.502-1.13
		c3.563-7.757,7.193-15.58,10.952-23.282c3.441-7.072,6.944-14.083,10.514-21.093c1.815-3.441,3.631-6.943,5.507-10.391
		c2.695-5.067,5.507-10.073,8.386-15.079c10.019-17.591,20.781-34.614,32.297-51.141c1.504-2.188,3.068-4.254,4.572-6.381
		c0.062,0,0.062-0.062,0.062-0.062c0.061-0.128,0.122-0.189,0.25-0.312H1043.078z"/>
	<path fill="none" d="M1075.815,64.903"/>
	<path fill="none" d="M819.982,64.903"/>
	<path fill="none" d="M1043.078,64.53"/>
	<path fill="none" d="M1075.815,64.53"/>
	<line fill="none" x1="996.265" y1="64.53" x2="812.189" y2="64.53"/>
	<path fill="none" d="M400.424,106.649"/>
	<line fill="none" x1="340.463" y1="106.649" x2="277.184" y2="106.649"/>
</g>
</svg>
